<?xml version="1.0" encoding="utf-8"?>
<!-- www.vectorico.com -->
<svg version="1.1" id="Twitter" xmlns="http://www.w3.org/2000/svg" xmlns:xlink="http://www.w3.org/1999/xlink" x="0px" y="0px"
	 viewBox="0 0 64 64" style="enable-background:new 0 0 64 64;" xml:space="preserve">
<style type="text/css">
	.st0{fill:#1DA1F2;}
	.st1{fill:#FFFFFF;}
</style>
<title>Twitter Logo WhiteOnBlue</title>
<rect class="st0" width="64" height="64"/>
<path class="st1" d="M24.6,48.3c15.1,0,23.3-12.5,23.3-23.3c0-0.4,0-0.7,0-1.1c1.6-1.2,3-2.6,4.1-4.2c-1.5,0.7-3.1,1.1-4.7,1.3
	c1.7-1,3-2.6,3.6-4.5c-1.6,0.9-3.3,1.6-5.2,2c-1.5-1.6-3.6-2.6-6-2.6c-4.5,0-8.2,3.7-8.2,8.2c0,0.6,0.1,1.3,0.2,1.9
	c-6.8-0.3-12.9-3.6-16.9-8.6c-0.7,1.2-1.1,2.6-1.1,4.1c0,2.8,1.4,5.4,3.7,6.8c-1.3,0-2.6-0.4-3.7-1c0,0,0,0.1,0,0.1
	c0,4,2.8,7.3,6.6,8c-0.7,0.2-1.4,0.3-2.2,0.3c-0.5,0-1-0.1-1.5-0.1c1,3.3,4.1,5.6,7.7,5.7c-2.8,2.2-6.3,3.5-10.2,3.5
	c-0.7,0-1.3,0-2-0.1C15.6,46.9,19.9,48.3,24.6,48.3"/>
</svg>
